<svg className="cursor-pointer fill-black dark:fill-white" width="221" height="26" viewBox="0 0 221 26" fill="blue" xmlns="http://www.w3.org/2000/svg">
    <path d="M114.465 25C114.232 25 114.022 24.9183 113.835 24.755C113.672 24.5917 113.59 24.3817 113.59 24.125V1.375C113.59 1.11833 113.672 0.908331 113.835 0.744998C114.022 0.581664 114.232 0.499997 114.465 0.499997H117.72C118.07 0.499997 118.327 0.593331 118.49 0.779998C118.677 0.966665 118.805 1.10667 118.875 1.2L125.315 13.065L131.825 1.2C131.872 1.10667 131.977 0.966665 132.14 0.779998C132.327 0.593331 132.595 0.499997 132.945 0.499997H136.2C136.457 0.499997 136.667 0.581664 136.83 0.744998C136.993 0.908331 137.075 1.11833 137.075 1.375V24.125C137.075 24.3817 136.993 24.5917 136.83 24.755C136.667 24.9183 136.457 25 136.2 25H132.63C132.397 25 132.198 24.9183 132.035 24.755C131.872 24.5917 131.79 24.3817 131.79 24.125V9.985L127.345 18.315C127.228 18.525 127.077 18.7117 126.89 18.875C126.703 19.0383 126.458 19.12 126.155 19.12H124.51C124.207 19.12 123.962 19.0383 123.775 18.875C123.588 18.7117 123.437 18.525 123.32 18.315L118.875 9.985V24.125C118.875 24.3817 118.793 24.5917 118.63 24.755C118.467 24.9183 118.268 25 118.035 25H114.465Z"  />
    <path d="M1.55 25C1.38333 25 1.24166 24.9417 1.125 24.825C1.00833 24.7083 0.949997 24.5667 0.949997 24.4V8.125C0.949997 7.94166 1.00833 7.79166 1.125 7.675C1.24166 7.55833 1.38333 7.5 1.55 7.5H12.4C12.5833 7.5 12.7333 7.55833 12.85 7.675C12.9667 7.79166 13.025 7.94166 13.025 8.125V9.875C13.025 10.0583 12.9667 10.2083 12.85 10.325C12.7333 10.425 12.5833 10.475 12.4 10.475H4.375V15.225H11.9C12.0833 15.225 12.2333 15.2833 12.35 15.4C12.4667 15.5167 12.525 15.6667 12.525 15.85V17.6C12.525 17.7667 12.4667 17.9083 12.35 18.025C12.2333 18.1417 12.0833 18.2 11.9 18.2H4.375V24.4C4.375 24.5667 4.31666 24.7083 4.2 24.825C4.08333 24.9417 3.93333 25 3.75 25H1.55Z"  />
    <path d="M19.4205 25.25C18.0872 25.25 16.9622 25.0167 16.0455 24.55C15.1455 24.0833 14.4538 23.425 13.9705 22.575C13.5038 21.725 13.2372 20.7333 13.1705 19.6C13.1538 19.3 13.1455 18.9333 13.1455 18.5C13.1455 18.0667 13.1538 17.7 13.1705 17.4C13.2372 16.25 13.5122 15.2583 13.9955 14.425C14.4955 13.575 15.1955 12.9167 16.0955 12.45C17.0122 11.9833 18.1205 11.75 19.4205 11.75C20.7205 11.75 21.8205 11.9833 22.7205 12.45C23.6372 12.9167 24.3372 13.575 24.8205 14.425C25.3205 15.2583 25.6038 16.25 25.6705 17.4C25.6872 17.7 25.6955 18.0667 25.6955 18.5C25.6955 18.9333 25.6872 19.3 25.6705 19.6C25.6038 20.7333 25.3288 21.725 24.8455 22.575C24.3788 23.425 23.6872 24.0833 22.7705 24.55C21.8705 25.0167 20.7538 25.25 19.4205 25.25ZM19.4205 22.775C20.3038 22.775 20.9872 22.5 21.4705 21.95C21.9538 21.3833 22.2205 20.5583 22.2705 19.475C22.2872 19.225 22.2955 18.9 22.2955 18.5C22.2955 18.1 22.2872 17.775 22.2705 17.525C22.2205 16.4583 21.9538 15.6417 21.4705 15.075C20.9872 14.5083 20.3038 14.225 19.4205 14.225C18.5372 14.225 17.8538 14.5083 17.3705 15.075C16.8872 15.6417 16.6205 16.4583 16.5705 17.525C16.5538 17.775 16.5455 18.1 16.5455 18.5C16.5455 18.9 16.5538 19.225 16.5705 19.475C16.6205 20.5583 16.8872 21.3833 17.3705 21.95C17.8538 22.5 18.5372 22.775 19.4205 22.775Z"  />
    <path d="M27.3154 25C27.1488 25 27.0071 24.9417 26.8904 24.825C26.7738 24.7083 26.7154 24.5667 26.7154 24.4V12.625C26.7154 12.4417 26.7738 12.2917 26.8904 12.175C27.0071 12.0583 27.1488 12 27.3154 12H29.3404C29.5071 12 29.6488 12.0583 29.7654 12.175C29.8988 12.2917 29.9654 12.4417 29.9654 12.625V13.65C30.3488 13.1167 30.8404 12.7083 31.4404 12.425C32.0571 12.1417 32.7654 12 33.5654 12H34.5904C34.7738 12 34.9154 12.0583 35.0154 12.175C35.1321 12.2917 35.1904 12.4333 35.1904 12.6V14.4C35.1904 14.5667 35.1321 14.7083 35.0154 14.825C34.9154 14.9417 34.7738 15 34.5904 15H32.6404C31.8404 15 31.2154 15.225 30.7654 15.675C30.3321 16.125 30.1154 16.7417 30.1154 17.525V24.4C30.1154 24.5667 30.0571 24.7083 29.9404 24.825C29.8238 24.9417 29.6738 25 29.4904 25H27.3154Z"  />
    <path d="M40.8193 25.25C38.9693 25.25 37.5027 24.7167 36.4193 23.65C35.336 22.5833 34.7527 21.0667 34.6693 19.1C34.6527 18.9333 34.6443 18.725 34.6443 18.475C34.6443 18.2083 34.6527 18 34.6693 17.85C34.736 16.6 35.0193 15.5167 35.5193 14.6C36.036 13.6833 36.7443 12.9833 37.6443 12.5C38.5443 12 39.6027 11.75 40.8193 11.75C42.1693 11.75 43.3027 12.0333 44.2193 12.6C45.136 13.15 45.8277 13.925 46.2943 14.925C46.761 15.9083 46.9943 17.05 46.9943 18.35V18.875C46.9943 19.0417 46.936 19.1833 46.8193 19.3C46.7027 19.4167 46.5527 19.475 46.3693 19.475H38.0693C38.0693 19.475 38.0693 19.5 38.0693 19.55C38.0693 19.6 38.0693 19.6417 38.0693 19.675C38.086 20.2583 38.1943 20.8 38.3943 21.3C38.611 21.7833 38.9193 22.175 39.3193 22.475C39.736 22.775 40.2277 22.925 40.7943 22.925C41.261 22.925 41.6527 22.8583 41.9693 22.725C42.286 22.575 42.5443 22.4083 42.7443 22.225C42.9443 22.0417 43.086 21.8917 43.1693 21.775C43.3193 21.575 43.436 21.4583 43.5193 21.425C43.6193 21.375 43.761 21.35 43.9443 21.35H46.0943C46.261 21.35 46.3943 21.4 46.4943 21.5C46.611 21.6 46.661 21.725 46.6443 21.875C46.6277 22.1417 46.486 22.4667 46.2193 22.85C45.9693 23.2333 45.6027 23.6083 45.1193 23.975C44.636 24.3417 44.0277 24.65 43.2943 24.9C42.5777 25.1333 41.7527 25.25 40.8193 25.25ZM38.0693 17.375H43.5943V17.3C43.5943 16.65 43.486 16.0833 43.2693 15.6C43.0527 15.1167 42.736 14.7333 42.3193 14.45C41.9027 14.1667 41.4027 14.025 40.8193 14.025C40.236 14.025 39.736 14.1667 39.3193 14.45C38.9027 14.7333 38.586 15.1167 38.3693 15.6C38.1693 16.0833 38.0693 16.65 38.0693 17.3V17.375Z"  />
    <path d="M47.0062 25C46.8562 25 46.7229 24.95 46.6062 24.85C46.5062 24.7333 46.4562 24.6 46.4562 24.45C46.4562 24.4 46.4646 24.3417 46.4812 24.275C46.5146 24.2083 46.5646 24.125 46.6312 24.025L50.8812 18.325L46.9312 12.975C46.8812 12.8917 46.8396 12.8167 46.8062 12.75C46.7896 12.6833 46.7812 12.6167 46.7812 12.55C46.7812 12.4 46.8312 12.275 46.9312 12.175C47.0479 12.0583 47.1812 12 47.3312 12H49.5062C49.7062 12 49.8562 12.05 49.9562 12.15C50.0562 12.25 50.1312 12.3417 50.1812 12.425L53.0062 16.175L55.8312 12.425C55.8979 12.3417 55.9729 12.25 56.0562 12.15C56.1562 12.05 56.3062 12 56.5062 12H58.5812C58.7312 12 58.8562 12.0583 58.9562 12.175C59.0729 12.275 59.1312 12.3917 59.1312 12.525C59.1312 12.6083 59.1146 12.6833 59.0812 12.75C59.0646 12.8167 59.0312 12.8917 58.9812 12.975L54.9812 18.375L59.2562 24.025C59.3229 24.125 59.3646 24.2083 59.3812 24.275C59.4146 24.3417 59.4312 24.4 59.4312 24.45C59.4312 24.6 59.3729 24.7333 59.2562 24.85C59.1562 24.95 59.0312 25 58.8812 25H56.6062C56.4229 25 56.2812 24.9583 56.1812 24.875C56.0812 24.775 55.9979 24.6833 55.9312 24.6L52.9312 20.625L49.8812 24.6C49.8146 24.6833 49.7312 24.775 49.6312 24.875C49.5479 24.9583 49.4062 25 49.2062 25H47.0062Z"  />
    <path d="M63.2516 25C63.0849 25 62.9432 24.9417 62.8266 24.825C62.7099 24.7083 62.6516 24.5667 62.6516 24.4V10.575H58.0266C57.8599 10.575 57.7182 10.5167 57.6016 10.4C57.4849 10.2833 57.4266 10.1417 57.4266 9.975V8.125C57.4266 7.94166 57.4849 7.79166 57.6016 7.675C57.7182 7.55833 57.8599 7.5 58.0266 7.5H70.7766C70.9599 7.5 71.1099 7.55833 71.2266 7.675C71.3432 7.79166 71.4016 7.94166 71.4016 8.125V9.975C71.4016 10.1417 71.3432 10.2833 71.2266 10.4C71.1099 10.5167 70.9599 10.575 70.7766 10.575H66.1766V24.4C66.1766 24.5667 66.1182 24.7083 66.0016 24.825C65.8849 24.9417 65.7349 25 65.5516 25H63.2516Z"  />
    <path d="M75.3434 25.25C74.01 25.25 72.885 25.0167 71.9684 24.55C71.0684 24.0833 70.3767 23.425 69.8934 22.575C69.4267 21.725 69.16 20.7333 69.0934 19.6C69.0767 19.3 69.0684 18.9333 69.0684 18.5C69.0684 18.0667 69.0767 17.7 69.0934 17.4C69.16 16.25 69.435 15.2583 69.9184 14.425C70.4184 13.575 71.1184 12.9167 72.0184 12.45C72.935 11.9833 74.0434 11.75 75.3434 11.75C76.6434 11.75 77.7434 11.9833 78.6434 12.45C79.56 12.9167 80.26 13.575 80.7434 14.425C81.2434 15.2583 81.5267 16.25 81.5934 17.4C81.61 17.7 81.6184 18.0667 81.6184 18.5C81.6184 18.9333 81.61 19.3 81.5934 19.6C81.5267 20.7333 81.2517 21.725 80.7684 22.575C80.3017 23.425 79.61 24.0833 78.6934 24.55C77.7934 25.0167 76.6767 25.25 75.3434 25.25ZM75.3434 22.775C76.2267 22.775 76.91 22.5 77.3934 21.95C77.8767 21.3833 78.1434 20.5583 78.1934 19.475C78.21 19.225 78.2184 18.9 78.2184 18.5C78.2184 18.1 78.21 17.775 78.1934 17.525C78.1434 16.4583 77.8767 15.6417 77.3934 15.075C76.91 14.5083 76.2267 14.225 75.3434 14.225C74.46 14.225 73.7767 14.5083 73.2934 15.075C72.81 15.6417 72.5434 16.4583 72.4934 17.525C72.4767 17.775 72.4684 18.1 72.4684 18.5C72.4684 18.9 72.4767 19.225 72.4934 19.475C72.5434 20.5583 72.81 21.3833 73.2934 21.95C73.7767 22.5 74.46 22.775 75.3434 22.775Z"  />
    <path d="M88.3883 25.25C87.0549 25.25 85.9299 25.0167 85.0133 24.55C84.1133 24.0833 83.4216 23.425 82.9383 22.575C82.4716 21.725 82.2049 20.7333 82.1383 19.6C82.1216 19.3 82.1133 18.9333 82.1133 18.5C82.1133 18.0667 82.1216 17.7 82.1383 17.4C82.2049 16.25 82.4799 15.2583 82.9633 14.425C83.4633 13.575 84.1633 12.9167 85.0633 12.45C85.9799 11.9833 87.0883 11.75 88.3883 11.75C89.6883 11.75 90.7883 11.9833 91.6883 12.45C92.6049 12.9167 93.3049 13.575 93.7883 14.425C94.2883 15.2583 94.5716 16.25 94.6383 17.4C94.6549 17.7 94.6633 18.0667 94.6633 18.5C94.6633 18.9333 94.6549 19.3 94.6383 19.6C94.5716 20.7333 94.2966 21.725 93.8133 22.575C93.3466 23.425 92.6549 24.0833 91.7383 24.55C90.8383 25.0167 89.7216 25.25 88.3883 25.25ZM88.3883 22.775C89.2716 22.775 89.9549 22.5 90.4383 21.95C90.9216 21.3833 91.1883 20.5583 91.2383 19.475C91.2549 19.225 91.2633 18.9 91.2633 18.5C91.2633 18.1 91.2549 17.775 91.2383 17.525C91.1883 16.4583 90.9216 15.6417 90.4383 15.075C89.9549 14.5083 89.2716 14.225 88.3883 14.225C87.5049 14.225 86.8216 14.5083 86.3383 15.075C85.8549 15.6417 85.5883 16.4583 85.5383 17.525C85.5216 17.775 85.5133 18.1 85.5133 18.5C85.5133 18.9 85.5216 19.225 85.5383 19.475C85.5883 20.5583 85.8549 21.3833 86.3383 21.95C86.8216 22.5 87.5049 22.775 88.3883 22.775Z"  />
    <path d="M96.3082 25C96.1415 25 95.9999 24.9417 95.8832 24.825C95.7665 24.7083 95.7082 24.5667 95.7082 24.4V7.85C95.7082 7.68333 95.7665 7.54166 95.8832 7.425C95.9999 7.30833 96.1415 7.25 96.3082 7.25H98.3832C98.5499 7.25 98.6915 7.30833 98.8082 7.425C98.9249 7.54166 98.9832 7.68333 98.9832 7.85V24.4C98.9832 24.5667 98.9249 24.7083 98.8082 24.825C98.6915 24.9417 98.5499 25 98.3832 25H96.3082Z"  />
    <path d="M105.474 25.25C104.474 25.25 103.616 25.1333 102.899 24.9C102.199 24.6667 101.624 24.375 101.174 24.025C100.724 23.675 100.391 23.325 100.174 22.975C99.9577 22.625 99.8411 22.3333 99.8244 22.1C99.8077 21.9167 99.8577 21.775 99.9744 21.675C100.108 21.5583 100.249 21.5 100.399 21.5H102.374C102.441 21.5 102.499 21.5083 102.549 21.525C102.599 21.5417 102.666 21.5917 102.749 21.675C102.966 21.8583 103.191 22.05 103.424 22.25C103.674 22.45 103.966 22.625 104.299 22.775C104.633 22.9083 105.049 22.975 105.549 22.975C106.199 22.975 106.741 22.85 107.174 22.6C107.624 22.3333 107.849 21.9583 107.849 21.475C107.849 21.125 107.749 20.8417 107.549 20.625C107.366 20.4083 107.016 20.2167 106.499 20.05C105.983 19.8667 105.249 19.675 104.299 19.475C103.366 19.2583 102.591 18.9833 101.974 18.65C101.358 18.3167 100.899 17.9 100.599 17.4C100.299 16.9 100.149 16.3167 100.149 15.65C100.149 15 100.341 14.3833 100.724 13.8C101.124 13.2 101.708 12.7083 102.474 12.325C103.258 11.9417 104.224 11.75 105.374 11.75C106.274 11.75 107.058 11.8667 107.724 12.1C108.391 12.3167 108.941 12.5917 109.374 12.925C109.824 13.2583 110.166 13.6 110.399 13.95C110.633 14.2833 110.758 14.575 110.774 14.825C110.791 15.0083 110.741 15.1583 110.624 15.275C110.508 15.375 110.374 15.425 110.224 15.425H108.374C108.291 15.425 108.216 15.4083 108.149 15.375C108.083 15.3417 108.016 15.3 107.949 15.25C107.766 15.0833 107.566 14.9083 107.349 14.725C107.133 14.5417 106.866 14.3833 106.549 14.25C106.249 14.1 105.849 14.025 105.349 14.025C104.716 14.025 104.233 14.1667 103.899 14.45C103.566 14.7167 103.399 15.0583 103.399 15.475C103.399 15.7583 103.474 16.0083 103.624 16.225C103.791 16.425 104.116 16.6167 104.599 16.8C105.083 16.9833 105.816 17.175 106.799 17.375C107.916 17.575 108.799 17.875 109.449 18.275C110.116 18.6583 110.583 19.1083 110.849 19.625C111.133 20.125 111.274 20.6833 111.274 21.3C111.274 22.05 111.049 22.725 110.599 23.325C110.166 23.925 109.516 24.4 108.649 24.75C107.799 25.0833 106.741 25.25 105.474 25.25Z"  />
    <path d="M143.832 25.35C142.572 25.35 141.44 25.1167 140.437 24.65C139.457 24.16 138.675 23.5067 138.092 22.69C137.508 21.8733 137.217 20.9517 137.217 19.925C137.217 18.2683 137.893 16.9617 139.247 16.005C140.6 15.025 142.397 14.36 144.637 14.01L149.012 13.345V12.855C149.012 12.015 148.837 11.3733 148.487 10.93C148.137 10.4867 147.495 10.265 146.562 10.265C145.908 10.265 145.372 10.3933 144.952 10.65C144.555 10.9067 144.24 11.2567 144.007 11.7C143.797 12.0033 143.505 12.155 143.132 12.155H139.212C138.955 12.155 138.757 12.085 138.617 11.945C138.477 11.7817 138.418 11.595 138.442 11.385C138.442 10.965 138.593 10.4867 138.897 9.95C139.223 9.39 139.713 8.84167 140.367 8.305C141.02 7.76833 141.86 7.325 142.887 6.975C143.913 6.625 145.15 6.45 146.597 6.45C148.113 6.45 149.408 6.625 150.482 6.975C151.555 7.325 152.418 7.815 153.072 8.445C153.748 9.075 154.25 9.82167 154.577 10.685C154.903 11.525 155.067 12.4583 155.067 13.485V24.125C155.067 24.3817 154.973 24.5917 154.787 24.755C154.623 24.9183 154.425 25 154.192 25H150.132C149.875 25 149.665 24.9183 149.502 24.755C149.338 24.5917 149.257 24.3817 149.257 24.125V22.9C148.953 23.3433 148.545 23.7517 148.032 24.125C147.518 24.4983 146.912 24.79 146.212 25C145.535 25.2333 144.742 25.35 143.832 25.35ZM145.477 21.36C146.153 21.36 146.76 21.22 147.297 20.94C147.857 20.6367 148.288 20.1817 148.592 19.575C148.918 18.945 149.082 18.1633 149.082 17.23V16.74L146.107 17.265C145.01 17.4517 144.205 17.7433 143.692 18.14C143.202 18.5133 142.957 18.9567 142.957 19.47C142.957 19.8667 143.073 20.205 143.307 20.485C143.54 20.765 143.843 20.9867 144.217 21.15C144.59 21.29 145.01 21.36 145.477 21.36Z"  />
    <path d="M157.791 25C157.535 25 157.324 24.9183 157.161 24.755C156.998 24.5917 156.916 24.3817 156.916 24.125V7.675C156.916 7.44167 156.998 7.24333 157.161 7.08C157.324 6.89333 157.535 6.8 157.791 6.8H161.816C162.073 6.8 162.283 6.89333 162.446 7.08C162.61 7.24333 162.691 7.44167 162.691 7.675V9.075C163.321 8.35167 164.068 7.79166 164.931 7.395C165.818 6.99833 166.809 6.8 167.906 6.8H169.446C169.68 6.8 169.878 6.88166 170.041 7.045C170.228 7.20833 170.321 7.41833 170.321 7.675V11.28C170.321 11.5133 170.228 11.7233 170.041 11.91C169.878 12.0733 169.68 12.155 169.446 12.155H166.051C165.094 12.155 164.348 12.4233 163.811 12.96C163.298 13.4733 163.041 14.2083 163.041 15.165V24.125C163.041 24.3817 162.948 24.5917 162.761 24.755C162.598 24.9183 162.388 25 162.131 25H157.791Z"  />
    <path d="M171.585 25C171.328 25 171.118 24.9183 170.955 24.755C170.791 24.5917 170.71 24.3817 170.71 24.125V1.025C170.71 0.768331 170.791 0.558331 170.955 0.394999C171.118 0.231665 171.328 0.149998 171.585 0.149998H175.645C175.878 0.149998 176.076 0.231665 176.24 0.394999C176.426 0.558331 176.52 0.768331 176.52 1.025V12.75L181.385 7.395C181.525 7.23166 181.676 7.09166 181.84 6.975C182.003 6.85833 182.236 6.8 182.54 6.8H187.23C187.44 6.8 187.615 6.88166 187.755 7.045C187.918 7.185 188 7.36 188 7.57C188 7.66333 187.976 7.76833 187.93 7.885C187.883 8.00166 187.813 8.095 187.72 8.165L181.42 14.955L188.595 23.67C188.781 23.8567 188.875 24.0433 188.875 24.23C188.875 24.44 188.793 24.6267 188.63 24.79C188.49 24.93 188.303 25 188.07 25H183.275C182.925 25 182.668 24.9417 182.505 24.825C182.341 24.685 182.19 24.545 182.05 24.405L176.52 17.755V24.125C176.52 24.3817 176.426 24.5917 176.24 24.755C176.076 24.9183 175.878 25 175.645 25H171.585Z"  />
    <path d="M196.629 25.35C193.876 25.35 191.682 24.6033 190.049 23.11C188.416 21.6167 187.564 19.4 187.494 16.46C187.494 16.2967 187.494 16.0867 187.494 15.83C187.494 15.5733 187.494 15.375 187.494 15.235C187.564 13.3917 187.972 11.8167 188.719 10.51C189.489 9.18 190.539 8.17667 191.869 7.5C193.222 6.8 194.797 6.45 196.594 6.45C198.647 6.45 200.339 6.85833 201.669 7.675C203.022 8.49167 204.037 9.6 204.714 11C205.391 12.4 205.729 13.9983 205.729 15.795V16.635C205.729 16.8917 205.636 17.1017 205.449 17.265C205.286 17.4283 205.087 17.51 204.854 17.51H193.654C193.654 17.5333 193.654 17.5683 193.654 17.615C193.654 17.6617 193.654 17.7083 193.654 17.755C193.677 18.4317 193.794 19.05 194.004 19.61C194.214 20.17 194.541 20.6133 194.984 20.94C195.427 21.2667 195.964 21.43 196.594 21.43C197.061 21.43 197.446 21.36 197.749 21.22C198.076 21.0567 198.344 20.8817 198.554 20.695C198.764 20.485 198.927 20.31 199.044 20.17C199.254 19.9367 199.417 19.7967 199.534 19.75C199.674 19.68 199.884 19.645 200.164 19.645H204.504C204.737 19.645 204.924 19.715 205.064 19.855C205.227 19.9717 205.297 20.1467 205.274 20.38C205.251 20.7767 205.052 21.255 204.679 21.815C204.306 22.375 203.757 22.935 203.034 23.495C202.334 24.0317 201.447 24.475 200.374 24.825C199.301 25.175 198.052 25.35 196.629 25.35ZM193.654 14.045H199.569V13.975C199.569 13.2283 199.452 12.575 199.219 12.015C199.009 11.455 198.671 11.0233 198.204 10.72C197.761 10.4167 197.224 10.265 196.594 10.265C195.964 10.265 195.427 10.4167 194.984 10.72C194.564 11.0233 194.237 11.455 194.004 12.015C193.771 12.575 193.654 13.2283 193.654 13.975V14.045Z"  />
    <path d="M216.186 25C214.693 25 213.398 24.7667 212.301 24.3C211.228 23.81 210.399 23.0633 209.816 22.06C209.233 21.0333 208.941 19.715 208.941 18.105V11.385H206.211C205.954 11.385 205.733 11.3033 205.546 11.14C205.383 10.9767 205.301 10.7667 205.301 10.51V7.675C205.301 7.41833 205.383 7.20833 205.546 7.045C205.733 6.88166 205.954 6.8 206.211 6.8H208.941V1.025C208.941 0.768331 209.023 0.558331 209.186 0.394999C209.373 0.231665 209.583 0.149998 209.816 0.149998H213.876C214.133 0.149998 214.343 0.231665 214.506 0.394999C214.669 0.558331 214.751 0.768331 214.751 1.025V6.8H219.126C219.383 6.8 219.593 6.88166 219.756 7.045C219.919 7.20833 220.001 7.41833 220.001 7.675V10.51C220.001 10.7667 219.919 10.9767 219.756 11.14C219.593 11.3033 219.383 11.385 219.126 11.385H214.751V17.615C214.751 18.4083 214.903 19.0383 215.206 19.505C215.509 19.9717 216.023 20.205 216.746 20.205H219.441C219.698 20.205 219.908 20.2867 220.071 20.45C220.234 20.6133 220.316 20.8233 220.316 21.08V24.125C220.316 24.3817 220.234 24.5917 220.071 24.755C219.908 24.9183 219.698 25 219.441 25H216.186Z"  />
  </svg>